<?xml version="1.0" encoding="UTF-8" standalone="no"?>
<!-- Created with Inkscape (http://www.inkscape.org/) -->

<svg
   version="1.1"
   id="svg2"
   width="1122.52"
   height="793.70667"
   viewBox="0 0 1122.52 793.70667"
   sodipodi:docname="Emblem_ai.ai"
   xmlns:inkscape="http://www.inkscape.org/namespaces/inkscape"
   xmlns:sodipodi="http://sodipodi.sourceforge.net/DTD/sodipodi-0.dtd"
   xmlns="http://www.w3.org/2000/svg"
   xmlns:svg="http://www.w3.org/2000/svg">
  <defs
     id="defs6">
    <clipPath
       clipPathUnits="userSpaceOnUse"
       id="clipPath18">
      <path
         d="M 0,595.28 H 841.89 V 0 H 0 Z"
         id="path16" />
    </clipPath>
  </defs>
  <sodipodi:namedview
     id="namedview4"
     pagecolor="#ffffff"
     bordercolor="#000000"
     borderopacity="0.25"
     inkscape:showpageshadow="2"
     inkscape:pageopacity="0.0"
     inkscape:pagecheckerboard="0"
     inkscape:deskcolor="#d1d1d1" />
  <g
     id="g8"
     inkscape:groupmode="layer"
     inkscape:label="Emblem_ai"
     transform="matrix(1.3333333,0,0,-1.3333333,0,793.70667)">
    <path
       d="M 800.504,144.458 H 416.383 v 271.601 h 384.121 z"
       style="fill:#231f20;fill-opacity:1;fill-rule:nonzero;stroke:none"
       id="path10" />
    <g
       id="g12">
      <g
         id="g14"
         clip-path="url(#clipPath18)">
        <g
           id="g20"
           transform="translate(45.1313,393.2627)">
          <path
             d="M 0,0 C 0.011,0.602 -0.252,1.555 -1.336,1.555 -2.322,1.555 -2.738,0.668 -2.815,0 Z m -2.826,-0.69 c 0.022,-1.303 0.844,-1.84 1.818,-1.84 0.69,0 1.117,0.121 1.467,0.274 l 0.176,-0.69 c -0.339,-0.154 -0.931,-0.34 -1.774,-0.34 -1.632,0 -2.607,1.085 -2.607,2.683 0,1.599 0.942,2.848 2.486,2.848 1.741,0 2.191,-1.511 2.191,-2.486 0,-0.197 -0.012,-0.339 -0.034,-0.449 z"
             style="fill:#231f20;fill-opacity:1;fill-rule:nonzero;stroke:none"
             id="path22" />
        </g>
        <g
           id="g24"
           transform="translate(47.2549,393.9634)">
          <path
             d="M 0,0 C 0,0.558 -0.021,0.997 -0.044,1.435 H 0.8 L 0.843,0.569 h 0.033 c 0.296,0.504 0.789,0.975 1.676,0.975 0.712,0 1.259,-0.438 1.489,-1.063 h 0.022 c 0.165,0.307 0.384,0.526 0.603,0.691 0.317,0.241 0.657,0.372 1.16,0.372 0.712,0 1.753,-0.46 1.753,-2.3 v -3.11 H 6.637 v 2.99 c 0,1.029 -0.384,1.632 -1.151,1.632 -0.558,0 -0.974,-0.405 -1.15,-0.865 C 4.293,-0.252 4.26,-0.416 4.26,-0.591 V -3.866 H 3.318 v 3.176 c 0,0.843 -0.372,1.446 -1.106,1.446 -0.591,0 -1.04,-0.482 -1.193,-0.964 C 0.964,-0.339 0.942,-0.515 0.942,-0.679 v -3.187 l -0.942,0 z"
             style="fill:#231f20;fill-opacity:1;fill-rule:nonzero;stroke:none"
             id="path26" />
        </g>
        <g
           id="g28"
           transform="translate(57.3408,392.2222)">
          <path
             d="m 0,0 c 0,-0.121 0.01,-0.241 0.043,-0.351 0.176,-0.667 0.745,-1.128 1.446,-1.128 1.018,0 1.61,0.822 1.61,2.037 0,1.063 -0.548,1.971 -1.588,1.971 C 0.865,2.529 0.251,2.07 0.054,1.347 0.021,1.227 0,1.095 0,0.942 Z M -0.953,5.651 H 0 V 2.322 h 0.021 c 0.34,0.591 0.953,0.963 1.808,0.963 1.324,0 2.244,-1.095 2.244,-2.694 0,-1.894 -1.204,-2.836 -2.387,-2.836 -0.767,0 -1.38,0.296 -1.785,0.985 h -0.022 l -0.055,-0.865 h -0.821 c 0.022,0.362 0.044,0.898 0.044,1.37 z"
             style="fill:#231f20;fill-opacity:1;fill-rule:nonzero;stroke:none"
             id="path30" />
        </g>
        <path
           d="m 62.618,397.873 h 0.964 v -7.775 h -0.964 z"
           style="fill:#231f20;fill-opacity:1;fill-rule:nonzero;stroke:none"
           id="path32" />
        <g
           id="g34"
           transform="translate(68.5645,393.2627)">
          <path
             d="M 0,0 C 0.011,0.602 -0.252,1.555 -1.336,1.555 -2.322,1.555 -2.738,0.668 -2.814,0 Z m -2.826,-0.69 c 0.022,-1.303 0.844,-1.84 1.818,-1.84 0.69,0 1.117,0.121 1.468,0.274 l 0.175,-0.69 c -0.339,-0.154 -0.931,-0.34 -1.774,-0.34 -1.632,0 -2.607,1.085 -2.607,2.683 0,1.599 0.942,2.848 2.486,2.848 1.741,0 2.191,-1.511 2.191,-2.486 0,-0.197 -0.012,-0.339 -0.033,-0.449 z"
             style="fill:#231f20;fill-opacity:1;fill-rule:nonzero;stroke:none"
             id="path36" />
        </g>
        <g
           id="g38"
           transform="translate(70.688,393.9634)">
          <path
             d="M 0,0 C 0,0.558 -0.022,0.997 -0.043,1.435 H 0.799 L 0.843,0.569 h 0.033 c 0.296,0.504 0.789,0.975 1.676,0.975 0.711,0 1.26,-0.438 1.49,-1.063 h 0.021 c 0.165,0.307 0.383,0.526 0.602,0.691 0.318,0.241 0.657,0.372 1.161,0.372 0.712,0 1.752,-0.46 1.752,-2.3 v -3.11 H 6.636 v 2.99 c 0,1.029 -0.383,1.632 -1.149,1.632 -0.559,0 -0.975,-0.405 -1.15,-0.865 C 4.293,-0.252 4.26,-0.416 4.26,-0.591 V -3.866 H 3.318 v 3.176 c 0,0.843 -0.372,1.446 -1.106,1.446 -0.591,0 -1.04,-0.482 -1.193,-0.964 C 0.964,-0.339 0.942,-0.515 0.942,-0.679 v -3.187 l -0.942,0 z"
             style="fill:#231f20;fill-opacity:1;fill-rule:nonzero;stroke:none"
             id="path40" />
        </g>
        <g
           id="g42"
           transform="translate(292.6406,267.7002)">
          <path
             d="m 0,0 17.618,29.33 h -28.994 c 2.449,8.487 5.899,16.484 10.538,23.441 -25.739,0.817 -53.165,6.999 -72.347,26.271 -19.183,-19.272 -46.608,-25.454 -72.348,-26.271 4.639,-6.957 8.089,-14.954 10.539,-23.441 h -28.995 L -146.37,0 -158.213,-23.124 h 27.162 c -0.643,-5.839 -1.617,-11.384 -2.868,-16.44 0,0 35.183,-6.532 60.734,-29.713 25.55,23.181 60.734,29.713 60.734,29.713 -1.251,5.056 -2.226,10.601 -2.87,16.44 h 27.163 z"
             style="fill:#e2e3e4;fill-opacity:1;fill-rule:nonzero;stroke:none"
             id="path44" />
        </g>
        <g
           id="g46"
           transform="translate(285.7173,267.7002)">
          <path
             d="M 0,0 11.576,22.381 H -16.31 c 1.562,8.625 4.021,16.648 7.583,23.127 -18.003,0.192 -45.535,8.059 -57.535,21.103 -12,-13.044 -39.531,-20.911 -57.535,-21.103 3.561,-6.479 6.02,-14.502 7.582,-23.127 h -27.886 L -132.524,0 -142.629,-18.846 h 27.905 c -0.563,-6.05 -1.445,-11.64 -2.57,-16.39 0,0 25.251,-5.703 51.032,-28.284 25.781,22.581 51.032,28.284 51.032,28.284 -1.126,4.75 -2.008,10.34 -2.57,16.39 h 27.904 z"
             style="fill:#231f20;fill-opacity:1;fill-rule:nonzero;stroke:none"
             id="path48" />
        </g>
        <g
           id="g50"
           transform="translate(219.4556,231.2725)">
          <path
             d="M 0,0 C -9.784,-0.006 -18.217,-5.77 -22.104,-14.083 L 0,-28.902 22.104,-14.083 C 18.216,-5.77 9.783,-0.006 0,0"
             style="fill:#e2e3e4;fill-opacity:1;fill-rule:nonzero;stroke:none"
             id="path52" />
        </g>
        <g
           id="g54"
           transform="translate(181.8706,254.8721)">
          <path
             d="m 0,0 -10.94,12.557 9.393,10.377 H -8.35 l -7.447,-8.088 V 30.09 h -8.89 c 1.68,-1.418 3.107,-3.298 3.107,-5.832 V 0 h 5.783 V 9.707 L -7.209,0 Z"
             style="fill:#ffffff;fill-opacity:1;fill-rule:nonzero;stroke:none"
             id="path56" />
        </g>
        <g
           id="g58"
           transform="translate(256.7988,277.8057)">
          <path
             d="M 0,0 V -22.934 H -5.782 V -5.833 C -5.782,-3.3 -7.21,-1.421 -8.891,0 Z"
             style="fill:#ffffff;fill-opacity:1;fill-rule:nonzero;stroke:none"
             id="path60" />
        </g>
        <g
           id="g62"
           transform="translate(281.0806,259.7061)">
          <path
             d="M 0,0 2.767,-4.834 H -19.975 L -8.287,13.267 H -19.201 V 18.1 H 2.271 L -10.404,0 Z"
             style="fill:#ffffff;fill-opacity:1;fill-rule:nonzero;stroke:none"
             id="path64" />
        </g>
        <g
           id="g66"
           transform="translate(192.8066,261.4883)">
          <path
             d="M 0,0 V 11.484 H 4.061 L 6.83,16.317 H 0 v 7.157 l -5.781,-3.309 v -3.848 h -4.26 v -4.833 h 4.26 V -0.315 c 0,-3.48 2.82,-6.301 6.3,-6.301 h 4.585 v 4.834 H 1.782 C 0.797,-1.782 0,-0.984 0,0"
             style="fill:#ffffff;fill-opacity:1;fill-rule:nonzero;stroke:none"
             id="path68" />
        </g>
        <g
           id="g70"
           transform="translate(239.1001,277.8057)">
          <path
             d="M 0,0 -5.737,-12.08 -12.404,0.602 -19.075,-12.082 -24.81,0 h -8.997 c 2.043,-1.148 4.365,-3.082 5.762,-5.918 1.397,-2.836 8.69,-17.566 8.69,-17.566 l 6.95,13.276 6.949,-13.276 L 6.213,0 Z"
             style="fill:#ffffff;fill-opacity:1;fill-rule:nonzero;stroke:none"
             id="path72" />
        </g>
        <g
           id="g74"
           transform="translate(259.8101,303.3403)">
          <path
             d="m 0,0 c -6.704,3.351 -9.58,6.542 -9.58,6.542 -8.087,47.971 -65.686,59.699 -91.413,49.633 16.357,-4.203 30.947,-10.242 40.852,-21.086 -13.705,3.467 -32.542,4.244 -43.573,0.834 13.802,-1.798 34.562,-11.162 47.175,-28.965 9.776,-13.8 15.205,-19.688 26.002,-25.686 6.867,2.641 12.745,9.154 14.667,13.905 C -10.249,-5.072 -3.358,-2.694 0,0"
             style="fill:#e2e3e4;fill-opacity:1;fill-rule:nonzero;stroke:none"
             id="path76" />
        </g>
        <g
           id="g78"
           transform="translate(256.1816,303.2046)">
          <path
             d="m 0,0 c -26.607,5.382 -28.299,33.374 -71.979,33.374 24.464,-13.438 24.733,-36.7 45.416,-48.566 0,0 2.344,2.459 4.595,7.845 l 3.858,-0.914 c 0.712,4.773 -0.167,9.571 -0.167,9.571 C -15.605,0.236 -7.628,-2.459 0,0"
             style="fill:#ed1c24;fill-opacity:1;fill-rule:nonzero;stroke:none"
             id="path80" />
        </g>
        <g
           id="g82"
           transform="translate(207.2393,336.3564)">
          <path
             d="M 0,0 C 16.618,-5.177 29.377,-13.898 37.073,-21.504 30.816,9.781 -8.089,29.253 -41.204,23.324 -41.204,23.324 -15.406,19.648 0,0"
             style="fill:#231f20;fill-opacity:1;fill-rule:nonzero;stroke:none"
             id="path84" />
        </g>
        <g
           id="g86"
           transform="translate(224.8882,303.8691)">
          <path
             d="m 0,0 c -0.523,4.048 -3.392,8.655 -7.477,12.005 4.404,-1.55 8.216,-0.804 9.937,1.95 C 2.983,9.906 5.852,5.3 9.937,1.95 5.534,3.501 1.721,2.752 0,0"
             style="fill:#ffffff;fill-opacity:1;fill-rule:nonzero;stroke:none"
             id="path88" />
        </g>
        <g
           id="g90"
           transform="translate(245.3516,248.208)">
          <path
             d="m 0,0 c -1.226,0 -2.228,-0.469 -2.871,-1.281 l -0.315,1.071 h -3.067 c 0.64,-0.54 1.182,-1.255 1.182,-2.221 v -6.506 h 2.2 v 5.246 c 0.252,0.814 1.271,1.796 2.291,1.796 1.164,0 1.735,-1.052 1.735,-2.308 v -4.734 h 2.199 v 4.985 C 3.354,-1.188 1.598,0 0,0"
             style="fill:#e2e3e4;fill-opacity:1;fill-rule:nonzero;stroke:none"
             id="path92" />
        </g>
        <g
           id="g94"
           transform="translate(207.3086,243.29)">
          <path
             d="m 0,0 c 0,-1.443 -0.611,-2.371 -1.896,-2.371 -1.285,0 -1.897,0.928 -1.897,2.371 v 4.725 h -3.384 c 0.639,-0.543 1.183,-1.258 1.183,-2.223 v -2.879 h 0.013 c 0,-3.034 2.596,-3.851 4.085,-3.851 1.487,0 4.085,0.817 4.085,3.851 V 4.725 L 0,4.725 Z"
             style="fill:#e2e3e4;fill-opacity:1;fill-rule:nonzero;stroke:none"
             id="path96" />
        </g>
        <g
           id="g98"
           transform="translate(223.998,247.998)">
          <path
             d="M 0,0 -2.182,-4.664 -4.72,0.298 -7.258,-4.666 -9.441,0 h -3.424 c 0.778,-0.438 1.661,-1.173 2.193,-2.253 0.531,-1.078 3.307,-6.818 3.307,-6.818 l 2.644,5.255 2.645,-5.255 L 2.365,0 Z"
             style="fill:#e2e3e4;fill-opacity:1;fill-rule:nonzero;stroke:none"
             id="path100" />
        </g>
        <g
           id="g102"
           transform="translate(232.5947,240.792)">
          <path
             d="M 0,0 C -1.386,0 -2.51,1.192 -2.51,2.843 -2.51,4.49 -1.386,5.686 0,5.686 1.386,5.686 2.51,4.49 2.51,2.843 2.51,1.192 1.386,0 0,0 m 0,7.459 c -2.694,0 -4.831,-1.912 -4.831,-4.616 0,-2.703 2.137,-4.616 4.831,-4.616 2.695,0 4.83,1.913 4.83,4.616 0,2.704 -2.135,4.616 -4.83,4.616"
             style="fill:#e2e3e4;fill-opacity:1;fill-rule:nonzero;stroke:none"
             id="path104" />
        </g>
        <g
           id="g106"
           transform="translate(193.9307,240.79)">
          <path
             d="m 0,0 c -1.355,0 -2.542,0.949 -2.618,1.617 l -1.109,-2.285 c 0.739,-0.641 2.102,-1.066 3.8,-1.066 2.642,0 4.211,1.153 4.211,2.74 -0.024,1.299 -0.785,2.109 -2.96,2.685 -1.532,0.399 -2.416,0.554 -2.416,1.113 0,0.62 0.766,0.946 1.748,0.946 0.826,0 1.609,-0.196 2.317,-0.666 L 3.832,6.62 C 3.312,7.051 1.725,7.425 0.68,7.425 -1.875,7.425 -3.441,6.154 -3.441,4.604 -3.465,3.575 -2.729,2.701 -0.382,2.105 1.102,1.727 1.927,1.547 1.927,0.951 1.927,0.304 1.133,0 0,0"
             style="fill:#e2e3e4;fill-opacity:1;fill-rule:nonzero;stroke:none"
             id="path108" />
        </g>
        <g
           id="g110"
           transform="translate(231.5923,217.1182)">
          <path
             d="m 0,0 c -0.393,0.352 -0.558,1.262 -0.345,1.98 l 0.003,0.007 c 0,0 -0.001,-0.001 -0.002,-0.001 L -0.345,1.984 C -0.664,1.584 -1.229,1.34 -1.609,1.35 -1.921,1.357 -3.93,1.385 -3.93,1.385 -4.264,1.389 -4.539,1.123 -4.543,0.789 -4.548,0.455 -4.282,0.181 -3.949,0.176 c 0,0 1.778,-0.033 2.059,-0.031 0.334,0 0.773,0.191 0.992,0.458 l 0.123,0.309 C -0.858,0.697 -0.937,0.48 -1.016,0.264 c -0.118,-0.565 0.018,-0.877 0.451,-1.245 0.458,-0.4 1.153,-1 1.153,-1 h 0.001 c 0.232,-0.201 0.583,-0.175 0.783,0.057 0.2,0.232 0.175,0.581 -0.058,0.783 0,0 -1.1,0.95 -1.314,1.141"
             style="fill:#ed1c24;fill-opacity:1;fill-rule:nonzero;stroke:none"
             id="path112" />
        </g>
        <g
           id="g114"
           transform="translate(232.9985,220.3965)">
          <path
             d="m 0,0 c -0.35,0.394 -0.412,1.317 -0.119,2.007 l 0.004,0.007 c 0,0 -0.002,-10e-4 -0.003,-0.002 L -0.119,2.011 C -0.481,1.647 -1.07,1.472 -1.446,1.524 -1.754,1.565 -3.749,1.82 -3.749,1.82 -4.08,1.863 -4.382,1.629 -4.425,1.298 -4.467,0.967 -4.234,0.664 -3.903,0.621 c 0,0 1.762,-0.233 2.042,-0.264 0.331,-0.037 0.79,0.103 1.036,0.343 l 0.158,0.294 c -0.104,-0.2 -0.204,-0.401 -0.304,-0.6 -0.194,-0.532 -0.087,-0.887 0.299,-1.304 0.411,-0.448 1.033,-1.124 1.033,-1.124 h 0.001 c 0.207,-0.226 0.558,-0.24 0.784,-0.032 0.225,0.208 0.239,0.557 0.032,0.784 0,0 -0.987,1.068 -1.178,1.282"
             style="fill:#ed1c24;fill-opacity:1;fill-rule:nonzero;stroke:none"
             id="path116" />
        </g>
        <g
           id="g118"
           transform="translate(228.7124,208.3857)">
          <path
             d="m 0,0 c -0.167,-0.483 -0.62,-0.901 -0.98,-1.02 -0.296,-0.096 -2.201,-0.74 -2.201,-0.74 -0.315,-0.107 -0.486,-0.449 -0.379,-0.765 0.107,-0.317 0.449,-0.487 0.765,-0.38 0,0 1.688,0.561 1.952,0.655 0.314,0.113 0.747,0.459 0.781,0.763 l 0.063,1.483 v 0.006 z"
             style="fill:#ed1c24;fill-opacity:1;fill-rule:nonzero;stroke:none"
             id="path120" />
        </g>
        <g
           id="g122"
           transform="translate(235.7905,222.0889)">
          <path
             d="m 0,0 c 0,0 -0.859,1.172 -1.025,1.406 -0.304,0.432 -0.26,1.356 0.109,2.008 L -0.912,3.422 -0.914,3.42 -0.915,3.418 C -1.315,3.099 -1.921,2.99 -2.29,3.084 c -0.302,0.077 -2.254,0.555 -2.254,0.555 -0.323,0.08 -0.651,-0.118 -0.73,-0.442 -0.08,-0.324 0.117,-0.652 0.441,-0.731 0,0 1.726,-0.432 1.999,-0.493 0.326,-0.075 0.797,0.013 1.069,0.223 l 0.189,0.272 C -1.7,2.283 -1.821,2.099 -1.941,1.914 -2.183,1.434 -2.13,1.036 -1.795,0.578 -1.438,0.087 -0.896,-0.655 -0.896,-0.655 -0.715,-0.903 -0.367,-0.957 -0.12,-0.776 0.127,-0.596 0.182,-0.248 0,0"
             style="fill:#ed1c24;fill-opacity:1;fill-rule:nonzero;stroke:none"
             id="path124" />
        </g>
        <g
           id="g126"
           transform="translate(231.4702,209.373)">
          <path
             d="M 0,0 C 0,0 -1.288,0.679 -1.538,0.817 -2,1.071 -2.366,1.922 -2.319,2.669 L -2.318,2.677 -2.319,2.676 V 2.675 L -2.32,2.673 C -2.54,2.211 -3.038,1.847 -3.409,1.771 -3.714,1.709 -5.678,1.284 -5.678,1.284 -6.004,1.214 -6.213,0.892 -6.143,0.565 -6.072,0.239 -5.751,0.032 -5.425,0.103 V 0.102 c 0,0 1.74,0.368 2.013,0.431 0.325,0.076 0.711,0.362 0.862,0.669 l 0.052,0.333 C -2.53,1.312 -2.557,1.087 -2.585,0.864 -2.566,0.309 -2.371,-0.001 -1.869,-0.267 -1.332,-0.552 -0.52,-0.98 -0.52,-0.98 -0.249,-1.124 0.087,-1.021 0.231,-0.75 0.374,-0.479 0.271,-0.144 0,0"
             style="fill:#ed1c24;fill-opacity:1;fill-rule:nonzero;stroke:none"
             id="path128" />
        </g>
        <g
           id="g130"
           transform="translate(230.5659,213.7002)">
          <path
             d="M 0,0 C -0.431,0.306 -0.696,1.191 -0.566,1.93 L -0.564,1.938 -0.566,1.936 -0.567,1.934 C -0.839,1.498 -1.374,1.194 -1.752,1.16 -2.062,1.132 -4.062,0.932 -4.062,0.932 -4.394,0.898 -4.636,0.604 -4.604,0.271 c 0.033,-0.332 0.329,-0.574 0.661,-0.541 h 10e-4 c 0,0 1.769,0.168 2.048,0.201 0.331,0.039 0.747,0.278 0.933,0.567 L -0.873,0.82 C -0.93,0.6 -0.983,0.377 -1.037,0.156 -1.098,-0.371 -0.92,-0.719 -0.451,-1.038 0.051,-1.382 0.809,-1.9 0.809,-1.9 c 0.252,-0.174 0.599,-0.109 0.772,0.144 0.172,0.253 0.107,0.599 -0.145,0.772 0,0 -1.202,0.819 -1.436,0.984"
             style="fill:#ed1c24;fill-opacity:1;fill-rule:nonzero;stroke:none"
             id="path132" />
        </g>
        <g
           id="g134"
           transform="translate(207.3164,217.1182)">
          <path
             d="M 0,0 C 0.393,0.352 0.558,1.262 0.345,1.98 L 0.342,1.987 c 0,0 0.001,-0.001 0.002,-0.001 L 0.345,1.984 C 0.664,1.584 1.229,1.34 1.609,1.35 1.921,1.357 3.93,1.385 3.93,1.385 4.264,1.389 4.539,1.123 4.543,0.789 4.548,0.455 4.282,0.181 3.949,0.176 c 0,0 -1.778,-0.033 -2.059,-0.031 -0.334,0 -0.773,0.191 -0.992,0.458 L 0.775,0.912 C 0.857,0.697 0.937,0.48 1.015,0.264 c 0.12,-0.565 -0.017,-0.877 -0.45,-1.245 -0.458,-0.4 -1.153,-1 -1.153,-1 h -0.001 c -0.231,-0.201 -0.583,-0.175 -0.783,0.057 -0.2,0.232 -0.175,0.581 0.058,0.783 0,0 1.1,0.95 1.314,1.141"
             style="fill:#ed1c24;fill-opacity:1;fill-rule:nonzero;stroke:none"
             id="path136" />
        </g>
        <g
           id="g138"
           transform="translate(205.9102,220.3965)">
          <path
             d="M 0,0 C 0.351,0.394 0.412,1.317 0.119,2.007 L 0.115,2.014 c 0.001,0 0.002,-10e-4 0.003,-0.002 V 2.011 C 0.481,1.647 1.07,1.472 1.447,1.524 1.755,1.565 3.749,1.82 3.749,1.82 4.08,1.863 4.383,1.629 4.426,1.298 4.467,0.967 4.235,0.664 3.903,0.621 3.903,0.621 2.141,0.388 1.86,0.357 1.53,0.32 1.071,0.46 0.825,0.7 L 0.667,0.994 c 0.104,-0.2 0.204,-0.401 0.305,-0.6 0.193,-0.532 0.085,-0.887 -0.3,-1.304 -0.411,-0.448 -1.033,-1.124 -1.033,-1.124 -0.207,-0.226 -0.558,-0.24 -0.785,-0.032 -0.224,0.208 -0.239,0.557 -0.032,0.784 0,0 0.988,1.068 1.178,1.282"
             style="fill:#ed1c24;fill-opacity:1;fill-rule:nonzero;stroke:none"
             id="path140" />
        </g>
        <g
           id="g142"
           transform="translate(210.1963,208.3857)">
          <path
             d="m 0,0 c 0.167,-0.483 0.62,-0.901 0.98,-1.02 0.296,-0.096 2.201,-0.74 2.201,-0.74 0.316,-0.107 0.486,-0.449 0.38,-0.765 -0.107,-0.317 -0.45,-0.487 -0.766,-0.38 0,0 -1.688,0.561 -1.952,0.655 -0.314,0.113 -0.747,0.459 -0.781,0.763 l -0.063,1.483 v 0.006 z"
             style="fill:#ed1c24;fill-opacity:1;fill-rule:nonzero;stroke:none"
             id="path144" />
        </g>
        <g
           id="g146"
           transform="translate(203.1187,222.0889)">
          <path
             d="M 0,0 C 0,0 0.859,1.172 1.024,1.406 1.328,1.838 1.285,2.762 0.916,3.414 L 0.912,3.422 0.913,3.42 0.915,3.418 C 1.315,3.099 1.92,2.99 2.29,3.084 2.592,3.161 4.543,3.639 4.543,3.639 4.867,3.719 5.195,3.521 5.274,3.197 5.354,2.873 5.157,2.545 4.833,2.466 c 0,0 -1.726,-0.432 -2,-0.493 C 2.507,1.898 2.037,1.986 1.765,2.196 L 1.576,2.468 C 1.7,2.283 1.819,2.099 1.941,1.914 2.182,1.434 2.129,1.036 1.795,0.578 1.437,0.087 0.895,-0.655 0.895,-0.655 0.714,-0.903 0.367,-0.957 0.12,-0.776 -0.127,-0.596 -0.182,-0.248 0,0"
             style="fill:#ed1c24;fill-opacity:1;fill-rule:nonzero;stroke:none"
             id="path148" />
        </g>
        <g
           id="g150"
           transform="translate(207.4385,209.373)">
          <path
             d="M 0,0 C 0,0 1.288,0.679 1.538,0.817 2.001,1.071 2.366,1.922 2.319,2.669 L 2.318,2.677 2.319,2.676 V 2.675 L 2.321,2.673 C 2.54,2.211 3.038,1.847 3.41,1.771 3.714,1.709 5.678,1.284 5.678,1.284 6.004,1.214 6.213,0.892 6.143,0.565 6.072,0.239 5.751,0.032 5.425,0.103 V 0.102 c 0,0 -1.74,0.368 -2.013,0.431 C 3.087,0.609 2.701,0.895 2.551,1.202 L 2.498,1.535 C 2.529,1.312 2.557,1.087 2.584,0.864 2.566,0.309 2.372,-0.001 1.869,-0.267 1.333,-0.552 0.52,-0.98 0.52,-0.98 0.249,-1.124 -0.087,-1.021 -0.231,-0.75 -0.373,-0.479 -0.271,-0.144 0,0"
             style="fill:#ed1c24;fill-opacity:1;fill-rule:nonzero;stroke:none"
             id="path152" />
        </g>
        <g
           id="g154"
           transform="translate(208.3433,213.7002)">
          <path
             d="M 0,0 C 0.43,0.306 0.696,1.191 0.566,1.93 L 0.564,1.938 0.566,1.936 0.567,1.934 C 0.838,1.498 1.373,1.194 1.752,1.16 2.062,1.132 4.062,0.932 4.062,0.932 4.393,0.898 4.635,0.604 4.604,0.271 4.57,-0.061 4.275,-0.303 3.943,-0.27 H 3.942 c 0,0 -1.77,0.168 -2.048,0.201 C 1.563,-0.03 1.147,0.209 0.961,0.498 L 0.872,0.82 C 0.929,0.6 0.982,0.377 1.036,0.156 1.097,-0.371 0.919,-0.719 0.451,-1.038 -0.051,-1.382 -0.81,-1.9 -0.81,-1.9 c -0.252,-0.174 -0.598,-0.109 -0.771,0.144 -0.172,0.253 -0.108,0.599 0.145,0.772 0,0 1.202,0.819 1.436,0.984"
             style="fill:#ed1c24;fill-opacity:1;fill-rule:nonzero;stroke:none"
             id="path156" />
        </g>
        <g
           id="g158"
           transform="translate(681.5576,267.6152)">
          <path
             d="m 0,0 17.618,29.329 h -28.994 c 2.449,8.488 5.898,16.484 10.538,23.442 -25.739,0.816 -53.165,6.999 -72.347,26.271 -19.182,-19.272 -46.609,-25.455 -72.348,-26.271 4.639,-6.958 8.089,-14.954 10.538,-23.442 h -28.994 L -146.37,0 -158.213,-23.125 h 27.162 c -0.642,-5.839 -1.618,-11.384 -2.869,-16.44 0,0 35.184,-6.532 60.735,-29.712 25.55,23.18 60.734,29.712 60.734,29.712 -1.251,5.056 -2.226,10.601 -2.869,16.44 h 27.162 z"
             style="fill:#e2e3e4;fill-opacity:1;fill-rule:nonzero;stroke:none"
             id="path160" />
        </g>
        <g
           id="g162"
           transform="translate(674.6338,267.6152)">
          <path
             d="M 0,0 11.576,22.381 H -16.31 c 1.563,8.624 4.022,16.647 7.583,23.127 -18.003,0.191 -45.535,8.058 -57.534,21.102 -12,-13.044 -39.532,-20.911 -57.536,-21.102 3.562,-6.48 6.021,-14.503 7.583,-23.127 H -144.1 L -132.523,0 -142.628,-18.847 h 27.904 c -0.561,-6.049 -1.444,-11.639 -2.569,-16.39 0,0 25.25,-5.703 51.032,-28.283 25.781,22.58 51.032,28.283 51.032,28.283 -1.126,4.751 -2.008,10.341 -2.571,16.39 h 27.904 z"
             style="fill:#231f20;fill-opacity:1;fill-rule:nonzero;stroke:none"
             id="path164" />
        </g>
        <g
           id="g166"
           transform="translate(608.373,231.1865)">
          <path
             d="M 0,0 C -9.784,-0.006 -18.217,-5.769 -22.104,-14.083 L 0,-28.901 22.103,-14.083 C 18.216,-5.769 9.783,-0.006 0,0"
             style="fill:#e2e3e4;fill-opacity:1;fill-rule:nonzero;stroke:none"
             id="path168" />
        </g>
        <g
           id="g170"
           transform="translate(570.7881,254.7871)">
          <path
             d="m 0,0 -10.94,12.557 9.392,10.376 h -6.803 l -7.447,-8.087 V 30.09 h -8.89 c 1.68,-1.419 3.108,-3.298 3.108,-5.833 V 0 h 5.782 V 9.707 L -7.21,0 Z"
             style="fill:#ffffff;fill-opacity:1;fill-rule:nonzero;stroke:none"
             id="path172" />
        </g>
        <g
           id="g174"
           transform="translate(645.7158,277.7197)">
          <path
             d="m 0,0 v -22.933 h -5.782 v 17.101 c 0,2.533 -1.428,4.412 -3.109,5.832 z"
             style="fill:#ffffff;fill-opacity:1;fill-rule:nonzero;stroke:none"
             id="path176" />
        </g>
        <g
           id="g178"
           transform="translate(669.998,259.6211)">
          <path
             d="m 0,0 2.767,-4.834 h -22.743 l 11.689,18.101 h -10.915 v 4.832 H 2.271 L -10.404,0 Z"
             style="fill:#ffffff;fill-opacity:1;fill-rule:nonzero;stroke:none"
             id="path180" />
        </g>
        <g
           id="g182"
           transform="translate(581.7236,261.4033)">
          <path
             d="M 0,0 V 11.484 H 4.061 L 6.83,16.316 H 0 v 7.158 l -5.78,-3.31 v -3.848 h -4.26 v -4.832 h 4.26 v -11.8 c 0,-3.479 2.819,-6.3 6.299,-6.3 h 4.585 v 4.834 H 1.782 C 0.797,-1.782 0,-0.984 0,0"
             style="fill:#ffffff;fill-opacity:1;fill-rule:nonzero;stroke:none"
             id="path184" />
        </g>
        <g
           id="g186"
           transform="translate(628.0176,277.7197)">
          <path
             d="M 0,0 -5.737,-12.08 -12.405,0.602 -19.075,-12.082 -24.81,0 h -8.998 c 2.043,-1.147 4.365,-3.082 5.763,-5.918 1.397,-2.835 8.69,-17.566 8.69,-17.566 l 6.949,13.277 6.95,-13.277 L 6.213,0 Z"
             style="fill:#ffffff;fill-opacity:1;fill-rule:nonzero;stroke:none"
             id="path188" />
        </g>
        <g
           id="g190"
           transform="translate(648.7275,303.2549)">
          <path
             d="m 0,0 c -6.704,3.351 -9.58,6.542 -9.58,6.542 -8.088,47.971 -65.687,59.699 -91.413,49.633 16.356,-4.203 30.946,-10.242 40.852,-21.086 -13.705,3.467 -32.542,4.244 -43.574,0.834 13.802,-1.798 34.563,-11.162 47.175,-28.965 9.777,-13.801 15.205,-19.688 26.003,-25.686 6.866,2.64 12.744,9.155 14.667,13.905 C -10.249,-5.072 -3.358,-2.694 0,0"
             style="fill:#e2e3e4;fill-opacity:1;fill-rule:nonzero;stroke:none"
             id="path192" />
        </g>
        <g
           id="g194"
           transform="translate(645.0986,303.1191)">
          <path
             d="m 0,0 c -26.606,5.382 -28.299,33.374 -71.979,33.374 24.464,-13.438 24.733,-36.7 45.416,-48.566 0,0 2.343,2.46 4.594,7.845 l 3.86,-0.914 c 0.711,4.773 -0.168,9.571 -0.168,9.571 C -15.605,0.235 -7.628,-2.459 0,0"
             style="fill:#ed1c24;fill-opacity:1;fill-rule:nonzero;stroke:none"
             id="path196" />
        </g>
        <g
           id="g198"
           transform="translate(596.1563,336.271)">
          <path
             d="M 0,0 C 16.618,-5.178 29.377,-13.898 37.073,-21.504 30.816,9.781 -8.089,29.253 -41.204,23.324 -41.204,23.324 -15.405,19.648 0,0"
             style="fill:#231f20;fill-opacity:1;fill-rule:nonzero;stroke:none"
             id="path200" />
        </g>
        <g
           id="g202"
           transform="translate(613.8057,303.7837)">
          <path
             d="M 0,0 C -0.522,4.048 -3.392,8.655 -7.478,12.004 -3.073,10.455 0.739,11.201 2.459,13.955 2.982,9.906 5.851,5.3 9.936,1.95 5.533,3.501 1.721,2.752 0,0"
             style="fill:#ffffff;fill-opacity:1;fill-rule:nonzero;stroke:none"
             id="path204" />
        </g>
        <g
           id="g206"
           transform="translate(634.2686,248.1221)">
          <path
             d="m 0,0 c -1.227,0 -2.228,-0.469 -2.871,-1.281 l -0.315,1.072 h -3.067 c 0.64,-0.541 1.182,-1.256 1.182,-2.221 v -6.506 h 2.2 v 5.245 c 0.252,0.815 1.271,1.796 2.291,1.796 1.165,0 1.735,-1.052 1.735,-2.308 v -4.733 h 2.199 v 4.984 C 3.354,-1.188 1.598,0 0,0"
             style="fill:#e2e3e4;fill-opacity:1;fill-rule:nonzero;stroke:none"
             id="path208" />
        </g>
        <g
           id="g210"
           transform="translate(596.2256,243.2041)">
          <path
             d="m 0,0 c 0,-1.443 -0.611,-2.371 -1.896,-2.371 -1.285,0 -1.898,0.928 -1.898,2.371 v 4.725 h -3.383 c 0.64,-0.542 1.183,-1.258 1.183,-2.222 v -2.879 h 0.013 c 0,-3.034 2.596,-3.851 4.085,-3.851 1.487,0 4.085,0.817 4.085,3.851 V 4.725 H 0 Z"
             style="fill:#e2e3e4;fill-opacity:1;fill-rule:nonzero;stroke:none"
             id="path212" />
        </g>
        <g
           id="g214"
           transform="translate(612.916,247.9131)">
          <path
             d="M 0,0 -2.183,-4.665 -4.721,0.297 -7.259,-4.666 -9.442,0 h -3.423 c 0.777,-0.438 1.66,-1.174 2.192,-2.254 0.531,-1.078 3.308,-6.818 3.308,-6.818 l 2.643,5.256 2.645,-5.256 L 2.364,0 Z"
             style="fill:#e2e3e4;fill-opacity:1;fill-rule:nonzero;stroke:none"
             id="path216" />
        </g>
        <g
           id="g218"
           transform="translate(621.5117,240.7061)">
          <path
             d="m 0,0 c -1.387,0 -2.51,1.193 -2.51,2.844 0,1.647 1.123,2.842 2.51,2.842 1.386,0 2.51,-1.195 2.51,-2.842 C 2.51,1.193 1.386,0 0,0 m 0,7.459 c -2.694,0 -4.831,-1.912 -4.831,-4.615 0,-2.703 2.137,-4.617 4.831,-4.617 2.695,0 4.83,1.914 4.83,4.617 0,2.703 -2.135,4.615 -4.83,4.615"
             style="fill:#e2e3e4;fill-opacity:1;fill-rule:nonzero;stroke:none"
             id="path220" />
        </g>
        <g
           id="g222"
           transform="translate(582.8477,240.7041)">
          <path
             d="m 0,0 c -1.355,0 -2.542,0.95 -2.617,1.617 l -1.11,-2.285 c 0.739,-0.641 2.102,-1.066 3.8,-1.066 2.642,0 4.212,1.154 4.212,2.74 C 4.261,2.305 3.5,3.115 1.324,3.692 -0.208,4.09 -1.092,4.246 -1.092,4.805 c 0,0.619 0.766,0.946 1.747,0.946 0.826,0 1.61,-0.197 2.318,-0.667 L 3.832,6.621 C 3.313,7.052 1.725,7.426 0.68,7.426 -1.875,7.426 -3.441,6.154 -3.441,4.604 -3.465,3.576 -2.729,2.701 -0.382,2.105 1.103,1.728 1.928,1.547 1.928,0.951 1.928,0.305 1.133,0 0,0"
             style="fill:#e2e3e4;fill-opacity:1;fill-rule:nonzero;stroke:none"
             id="path224" />
        </g>
        <g
           id="g226"
           transform="translate(620.5098,217.0322)">
          <path
             d="m 0,0 c -0.394,0.352 -0.559,1.262 -0.346,1.98 l 0.003,0.008 c 0,0 -10e-4,-0.002 -0.002,-0.002 L -0.346,1.984 C -0.664,1.584 -1.23,1.341 -1.609,1.35 -1.922,1.357 -3.931,1.385 -3.931,1.385 -4.265,1.39 -4.539,1.123 -4.543,0.789 -4.549,0.456 -4.282,0.182 -3.949,0.176 c 0,0 1.778,-0.032 2.058,-0.031 0.334,0.001 0.774,0.191 0.993,0.459 l 0.123,0.309 C -0.858,0.697 -0.937,0.48 -1.017,0.264 c -0.118,-0.565 0.019,-0.877 0.452,-1.244 0.458,-0.4 1.153,-1.001 1.153,-1.001 l 0.001,0.001 c 0.231,-0.202 0.583,-0.176 0.782,0.056 0.2,0.233 0.176,0.582 -0.057,0.783 0,0 -1.1,0.95 -1.314,1.141"
             style="fill:#ed1c24;fill-opacity:1;fill-rule:nonzero;stroke:none"
             id="path228" />
        </g>
        <g
           id="g230"
           transform="translate(621.916,220.3115)">
          <path
             d="m 0,0 c -0.351,0.393 -0.412,1.316 -0.12,2.006 l 0.005,0.007 c -0.001,0 -0.002,-10e-4 -0.003,-10e-4 L -0.119,2.01 C -0.481,1.647 -1.07,1.471 -1.446,1.523 -1.755,1.565 -3.749,1.819 -3.749,1.819 -4.08,1.863 -4.383,1.629 -4.426,1.297 c -0.042,-0.33 0.191,-0.633 0.523,-0.676 0,0 1.762,-0.234 2.042,-0.265 0.331,-0.036 0.79,0.104 1.036,0.344 l 0.158,0.293 c -0.104,-0.199 -0.204,-0.4 -0.305,-0.6 -0.193,-0.532 -0.087,-0.887 0.3,-1.304 0.41,-0.448 1.032,-1.124 1.032,-1.124 h 0.001 c 0.207,-0.226 0.558,-0.239 0.785,-0.031 0.224,0.207 0.239,0.557 0.032,0.783 0,0 -0.988,1.068 -1.178,1.283"
             style="fill:#ed1c24;fill-opacity:1;fill-rule:nonzero;stroke:none"
             id="path232" />
        </g>
        <g
           id="g234"
           transform="translate(617.6289,208.3008)">
          <path
             d="M 0,0 C -0.166,-0.483 -0.619,-0.901 -0.979,-1.02 -1.275,-1.116 -3.18,-1.761 -3.18,-1.761 -3.495,-1.868 -3.665,-2.21 -3.56,-2.526 c 0.108,-0.316 0.45,-0.487 0.766,-0.379 0,0 1.688,0.561 1.951,0.654 0.315,0.113 0.748,0.46 0.781,0.764 l 0.064,1.482 -0.001,0.007 z"
             style="fill:#ed1c24;fill-opacity:1;fill-rule:nonzero;stroke:none"
             id="path236" />
        </g>
        <g
           id="g238"
           transform="translate(624.707,222.0029)">
          <path
             d="m 0,0 c 0,0 -0.858,1.172 -1.024,1.407 -0.304,0.431 -0.26,1.356 0.108,2.008 L -0.911,3.422 -0.913,3.42 -0.915,3.419 C -1.314,3.1 -1.921,2.99 -2.29,3.084 -2.592,3.162 -4.543,3.639 -4.543,3.639 -4.867,3.719 -5.195,3.521 -5.274,3.197 c -0.08,-0.324 0.118,-0.651 0.442,-0.731 0,0 1.726,-0.431 1.999,-0.493 0.326,-0.075 0.796,0.013 1.068,0.224 l 0.189,0.272 C -1.7,2.284 -1.82,2.099 -1.94,1.914 -2.183,1.434 -2.129,1.037 -1.795,0.578 c 0.358,-0.491 0.899,-1.232 0.899,-1.232 0.182,-0.248 0.53,-0.303 0.776,-0.121 C 0.128,-0.595 0.183,-0.248 0,0"
             style="fill:#ed1c24;fill-opacity:1;fill-rule:nonzero;stroke:none"
             id="path240" />
        </g>
        <g
           id="g242"
           transform="translate(620.3877,209.2881)">
          <path
             d="m 0,0 c 0,0 -1.288,0.678 -1.538,0.816 -0.463,0.255 -0.828,1.106 -0.781,1.852 l 10e-4,0.008 H -2.319 V 2.675 L -2.321,2.672 C -2.54,2.211 -3.038,1.847 -3.41,1.771 -3.715,1.708 -5.679,1.283 -5.679,1.283 -6.005,1.213 -6.213,0.892 -6.143,0.565 c 0.071,-0.326 0.392,-0.534 0.718,-0.463 0,0 1.739,0.367 2.013,0.431 0.325,0.076 0.711,0.361 0.861,0.668 l 0.053,0.333 C -2.53,1.311 -2.557,1.086 -2.586,0.863 c 0.02,-0.555 0.214,-0.864 0.717,-1.13 0.536,-0.286 1.349,-0.714 1.349,-0.714 0.271,-0.144 0.607,-0.04 0.75,0.231 C 0.373,-0.479 0.271,-0.144 0,0"
             style="fill:#ed1c24;fill-opacity:1;fill-rule:nonzero;stroke:none"
             id="path244" />
        </g>
        <g
           id="g246"
           transform="translate(619.4824,213.6152)">
          <path
             d="M 0,0 C -0.43,0.306 -0.695,1.19 -0.565,1.929 L -0.563,1.938 -0.565,1.936 V 1.935 L -0.566,1.933 C -0.838,1.498 -1.373,1.194 -1.752,1.159 -2.062,1.132 -4.062,0.932 -4.062,0.932 -4.393,0.898 -4.635,0.603 -4.603,0.271 c 0.034,-0.333 0.329,-0.575 0.66,-0.542 h 10e-4 c 0,0 1.77,0.168 2.048,0.202 0.331,0.039 0.748,0.277 0.933,0.566 l 0.089,0.322 c -0.057,-0.22 -0.11,-0.442 -0.164,-0.663 -0.062,-0.528 0.116,-0.876 0.586,-1.194 0.501,-0.344 1.26,-0.863 1.26,-0.863 0.252,-0.173 0.598,-0.108 0.771,0.144 0.172,0.253 0.108,0.6 -0.145,0.772 0,0 -1.202,0.82 -1.436,0.985"
             style="fill:#ed1c24;fill-opacity:1;fill-rule:nonzero;stroke:none"
             id="path248" />
        </g>
        <g
           id="g250"
           transform="translate(596.2334,217.0322)">
          <path
             d="M 0,0 C 0.394,0.352 0.558,1.262 0.345,1.98 L 0.343,1.988 c 0,0 0,-0.002 10e-4,-0.002 L 0.345,1.984 C 0.664,1.584 1.229,1.341 1.609,1.35 1.922,1.357 3.93,1.385 3.93,1.385 4.265,1.39 4.539,1.123 4.543,0.789 4.549,0.456 4.282,0.182 3.949,0.176 3.949,0.176 2.171,0.144 1.891,0.145 1.556,0.146 1.117,0.336 0.898,0.604 L 0.775,0.913 C 0.858,0.697 0.937,0.48 1.016,0.264 1.135,-0.301 0.998,-0.613 0.565,-0.98 0.107,-1.38 -0.588,-1.981 -0.588,-1.981 l -0.001,0.001 c -0.231,-0.202 -0.583,-0.176 -0.782,0.056 -0.2,0.233 -0.176,0.582 0.057,0.783 0,0 1.1,0.95 1.314,1.141"
             style="fill:#ed1c24;fill-opacity:1;fill-rule:nonzero;stroke:none"
             id="path252" />
        </g>
        <g
           id="g254"
           transform="translate(594.8271,220.3115)">
          <path
             d="M 0,0 C 0.351,0.393 0.412,1.316 0.12,2.006 L 0.115,2.013 c 0.001,0 0.002,-10e-4 0.003,-10e-4 L 0.119,2.01 C 0.481,1.647 1.07,1.471 1.446,1.523 1.755,1.565 3.749,1.819 3.749,1.819 4.08,1.863 4.383,1.629 4.426,1.297 4.468,0.967 4.235,0.664 3.903,0.621 3.903,0.621 2.141,0.387 1.861,0.356 1.53,0.32 1.071,0.46 0.825,0.7 L 0.667,0.993 c 0.104,-0.199 0.204,-0.4 0.305,-0.6 0.193,-0.532 0.085,-0.887 -0.3,-1.304 -0.41,-0.448 -1.032,-1.124 -1.032,-1.124 h -0.001 c -0.207,-0.226 -0.558,-0.239 -0.785,-0.031 -0.224,0.207 -0.239,0.557 -0.032,0.783 0,0 0.988,1.068 1.178,1.283"
             style="fill:#ed1c24;fill-opacity:1;fill-rule:nonzero;stroke:none"
             id="path256" />
        </g>
        <g
           id="g258"
           transform="translate(599.1133,208.3008)">
          <path
             d="m 0,0 c 0.167,-0.483 0.62,-0.901 0.98,-1.02 0.296,-0.096 2.201,-0.741 2.201,-0.741 0.315,-0.107 0.486,-0.449 0.38,-0.765 -0.108,-0.316 -0.45,-0.487 -0.766,-0.379 0,0 -1.688,0.561 -1.951,0.654 -0.315,0.113 -0.748,0.46 -0.782,0.764 L -0.001,-0.005 0,0.002 Z"
             style="fill:#ed1c24;fill-opacity:1;fill-rule:nonzero;stroke:none"
             id="path260" />
        </g>
        <g
           id="g262"
           transform="translate(592.0352,222.0029)">
          <path
             d="M 0,0 C 0,0 0.859,1.172 1.025,1.407 1.329,1.838 1.285,2.763 0.916,3.415 L 0.912,3.422 0.914,3.42 0.915,3.419 C 1.315,3.1 1.922,2.99 2.29,3.084 2.593,3.162 4.544,3.639 4.544,3.639 4.867,3.719 5.195,3.521 5.275,3.197 5.354,2.873 5.157,2.546 4.833,2.466 4.833,2.466 3.107,2.035 2.834,1.973 2.508,1.898 2.037,1.986 1.766,2.197 L 1.577,2.469 C 1.7,2.284 1.82,2.099 1.941,1.914 2.183,1.434 2.13,1.037 1.796,0.578 1.438,0.087 0.896,-0.654 0.896,-0.654 0.715,-0.902 0.367,-0.957 0.12,-0.775 -0.127,-0.595 -0.182,-0.248 0,0"
             style="fill:#ed1c24;fill-opacity:1;fill-rule:nonzero;stroke:none"
             id="path264" />
        </g>
        <g
           id="g266"
           transform="translate(596.3555,209.2881)">
          <path
             d="M 0,0 C 0,0 1.288,0.678 1.538,0.816 2.001,1.071 2.366,1.922 2.319,2.668 L 2.318,2.676 H 2.319 V 2.675 L 2.32,2.672 C 2.54,2.211 3.038,1.847 3.41,1.771 3.715,1.708 5.679,1.283 5.679,1.283 6.005,1.213 6.213,0.892 6.143,0.565 6.072,0.239 5.752,0.031 5.426,0.102 c 0,0 -1.741,0.367 -2.014,0.431 C 3.087,0.609 2.701,0.894 2.551,1.201 L 2.498,1.534 C 2.53,1.311 2.557,1.086 2.585,0.863 2.565,0.308 2.371,-0.001 1.869,-0.267 1.332,-0.553 0.52,-0.981 0.52,-0.981 0.249,-1.125 -0.087,-1.021 -0.23,-0.75 -0.373,-0.479 -0.271,-0.144 0,0"
             style="fill:#ed1c24;fill-opacity:1;fill-rule:nonzero;stroke:none"
             id="path268" />
        </g>
        <g
           id="g270"
           transform="translate(597.2598,213.6152)">
          <path
             d="M 0,0 C 0.431,0.306 0.696,1.19 0.566,1.929 L 0.564,1.938 0.566,1.936 V 1.935 L 0.567,1.933 C 0.839,1.498 1.374,1.194 1.752,1.159 2.063,1.132 4.063,0.932 4.063,0.932 4.394,0.898 4.636,0.603 4.604,0.271 4.571,-0.062 4.275,-0.304 3.943,-0.271 H 3.942 c 0,0 -1.769,0.168 -2.047,0.202 C 1.563,-0.03 1.147,0.208 0.962,0.497 L 0.873,0.819 C 0.93,0.599 0.983,0.377 1.037,0.156 1.099,-0.372 0.92,-0.72 0.451,-1.038 c -0.502,-0.344 -1.26,-0.863 -1.26,-0.863 -0.252,-0.173 -0.598,-0.108 -0.771,0.144 -0.173,0.253 -0.108,0.6 0.144,0.772 0,0 1.202,0.82 1.436,0.985"
             style="fill:#ed1c24;fill-opacity:1;fill-rule:nonzero;stroke:none"
             id="path272" />
        </g>
      </g>
    </g>
  </g>
</svg>
